<svg width="41" height="41" viewBox="0 0 41 41" fill="none" xmlns="http://www.w3.org/2000/svg">
<path d="M37.4167 21.699V25.1324C37.4167 26.0657 36.65 26.8324 35.7 26.8324H32.4834C30.6834 26.8324 29.0334 25.5157 28.8834 23.7157C28.7834 22.6657 29.1834 21.6824 29.8834 20.999C30.5 20.3657 31.35 19.999 32.2834 19.999H35.7C36.65 19.999 37.4167 20.7657 37.4167 21.699Z" fill="white"/>
<path d="M26.383 23.9322C26.233 22.1822 26.8663 20.4655 28.133 19.2155C29.1997 18.1322 30.683 17.4989 32.283 17.4989H33.233C33.6997 17.4989 34.083 17.1155 34.0163 16.6489C33.5663 13.4155 30.7663 10.9155 27.4163 10.9155H10.7497C7.06634 10.9155 4.08301 13.8989 4.08301 17.5822V29.2489C4.08301 32.9322 7.06634 35.9155 10.7497 35.9155H27.4163C30.783 35.9155 33.5663 33.4155 34.0163 30.1822C34.083 29.7155 33.6997 29.3322 33.233 29.3322H32.483C29.3163 29.3322 26.6497 26.9655 26.383 23.9322ZM22.4163 20.4989H12.4163C11.733 20.4989 11.1663 19.9489 11.1663 19.2489C11.1663 18.5489 11.733 17.9989 12.4163 17.9989H22.4163C23.0997 17.9989 23.6663 18.5655 23.6663 19.2489C23.6663 19.9322 23.0997 20.4989 22.4163 20.4989Z" fill="white"/>
<path d="M24.4338 7.29886C24.8671 7.74886 24.4837 8.41553 23.8504 8.41553H10.8004C8.98375 8.41553 7.28375 8.94886 5.86708 9.86553C5.21708 10.2822 4.33375 9.83219 4.65042 9.11553C5.58375 6.93219 7.76708 5.41553 10.2837 5.41553H19.6504C21.5837 5.41553 23.3004 6.09886 24.4338 7.29886Z" fill="white"/>
</svg>
